# xmcd
#
# Track frame offsets:
#  150
#  10501
#  30837
#  73515
#  111095
#  141545
#  172275
#  210528
#  243040
#  282770
#
# Disc length: 4379 seconds
#
# Revision: 0
# Processed by: cddbd v1.5.2PL0 Copyright (c) Steve Scherf et al.
# Submitted via: AltoMP3_Maker 3.0
#
DISCID=8311190a
DTITLE=Militia - Eco-Anarchic Manifesto - The Black Flag Hoisted (Live at Deadly Actions IV, 3 Nov. 2000)
DYEAR=1900
DGENRE=
TTITLE0=Untitled
TTITLE1=Untitled
TTITLE2=Untitled
TTITLE3=Untitled
TTITLE4=Untitled
TTITLE5=Untitled
TTITLE6=Untitled
TTITLE7=Untitled
TTITLE8=Untitled
TTITLE9=Untitled
EXTD=
EXTT0=
EXTT1=
EXTT2=
EXTT3=
EXTT4=
EXTT5=
EXTT6=
EXTT7=
EXTT8=
EXTT9=
PLAYORDER=
